<svg xmlns="http://www.w3.org/2000/svg" viewBox="0 0 500 400" fill="none">
  <defs>
    <linearGradient id="nfg1" x1="0" y1="0" x2="1" y2="1">
      <stop offset="0%" stop-color="#018DFF" stop-opacity="0.06"/>
      <stop offset="100%" stop-color="#5F5DE7" stop-opacity="0.1"/>
    </linearGradient>
    <linearGradient id="nfg2" x1="0" y1="1" x2="1" y2="0">
      <stop offset="0%" stop-color="#FF6A00" stop-opacity="0.06"/>
      <stop offset="100%" stop-color="#FF5310" stop-opacity="0.03"/>
    </linearGradient>
  </defs>
  <circle cx="250" cy="180" r="140" fill="url(#nfg1)" opacity="0.5"/>
  <path d="M80 320 Q200 280 300 310 Q400 340 460 290" stroke="#EAEAEA" stroke-width="1.5" fill="none" opacity="0.4"/>
  <path d="M120 120 Q180 80 220 110 Q260 140 300 100 Q340 60 380 110" stroke="#018DFF" stroke-width="1.5" stroke-linecap="round" fill="none" opacity="0.25"/>
  <circle cx="220" cy="110" r="5" fill="#5F5DE7" opacity="0.15"/>
  <circle cx="300" cy="100" r="4" fill="#018DFF" opacity="0.12"/>
  <path d="M230 140 Q250 110 270 130 Q290 150 270 170 Q255 185 255 200" stroke="#848281" stroke-width="2" stroke-linecap="round" fill="none" opacity="0.2"/>
  <circle cx="255" cy="220" r="4" fill="#848281" opacity="0.2"/>
  <circle cx="250" cy="260" r="30" stroke="#EAEAEA" stroke-width="1.5" fill="none" opacity="0.4"/>
  <circle cx="250" cy="260" r="10" fill="#5F5DE7" opacity="0.06"/>
  <path d="M250 240 L250 230" stroke="#5F5DE7" stroke-width="1.5" stroke-linecap="round" opacity="0.15"/>
  <path d="M250 280 L250 290" stroke="#5F5DE7" stroke-width="1.5" stroke-linecap="round" opacity="0.1"/>
  <path d="M230 260 L220 260" stroke="#5F5DE7" stroke-width="1.5" stroke-linecap="round" opacity="0.15"/>
  <path d="M270 260 L280 260" stroke="#5F5DE7" stroke-width="1.5" stroke-linecap="round" opacity="0.1"/>
  <circle cx="370" cy="150" r="6" fill="#FF6A00" opacity="0.08"/>
  <circle cx="370" cy="150" r="2.5" fill="#FF6A00" opacity="0.18"/>
  <circle cx="120" cy="200" r="5" fill="#44C67F" opacity="0.06"/>
  <circle cx="120" cy="200" r="2" fill="#44C67F" opacity="0.15"/>
  <circle cx="380" cy="300" r="4" fill="#018DFF" opacity="0.06"/>
  <circle cx="160" cy="310" r="3.5" fill="#5F5DE7" opacity="0.08"/>
  <path d="M150 340 Q250 330 350 340" stroke="#EAEAEA" stroke-width="1" fill="none" opacity="0.3"/>
</svg>
