<svg xmlns="http://www.w3.org/2000/svg" viewBox="0 0 200 200" fill="none">
  <!-- Hand-drawn circles and scribbles -->
  <circle cx="30" cy="30" r="18" fill="none" stroke="#343433" stroke-width="2.5" opacity="0.25"/>
  <circle cx="33" cy="30" r="14" fill="none" stroke="#343433" stroke-width="1" stroke-dasharray="4 3" opacity="0.15"/>
  <circle cx="30" cy="30" r="6" fill="#FF6A00" opacity="0.12"/>

  <circle cx="170" cy="50" r="14" fill="none" stroke="#343433" stroke-width="2" opacity="0.2"/>
  <circle cx="172" cy="48" r="10" fill="none" stroke="#018DFF" stroke-width="0.8" opacity="0.15"/>

  <circle cx="40" cy="150" r="12" fill="none" stroke="#343433" stroke-width="2" opacity="0.18"/>
  <circle cx="38" cy="152" r="8" fill="none" stroke="#5F5DE7" stroke-width="0.8" opacity="0.12"/>

  <circle cx="150" cy="160" r="16" fill="none" stroke="#343433" stroke-width="2.2" opacity="0.2"/>
  <path d="M140 155 C145 148 155 148 160 155" fill="none" stroke="#343433" stroke-width="0.8" opacity="0.15"/>

  <!-- Scribble dots -->
  <path d="M90 20 C93 15 100 14 105 18 C110 22 108 30 103 32" fill="none" stroke="#44C67F" stroke-width="1" opacity="0.15"/>
  <path d="M80 170 C78 165 83 160 88 162 C93 164 92 172 87 173" fill="none" stroke="#FF5310" stroke-width="1" opacity="0.12"/>

  <!-- Hand-drawn cross marks -->
  <path d="M160 20 L170 30 M170 20 L160 30" stroke="#343433" stroke-width="1" opacity="0.12"/>
  <path d="M50 60 L58 68 M58 60 L50 68" stroke="#343433" stroke-width="0.8" opacity="0.1"/>
</svg>
