<svg xmlns="http://www.w3.org/2000/svg" viewBox="0 0 400 350" fill="none">
  <defs>
    <linearGradient id="t2g1" x1="0" y1="0" x2="1" y2="1">
      <stop offset="0%" stop-color="#5F5DE7" stop-opacity="0.12"/>
      <stop offset="100%" stop-color="#FF6A00" stop-opacity="0.06"/>
    </linearGradient>
  </defs>
  <rect x="50" y="70" width="100" height="100" rx="10" stroke="#5F5DE7" stroke-width="1.5" fill="none" opacity="0.4"/>
  <path d="M70 90 L90 90 L80 80Z" fill="#5F5DE7" opacity="0.15"/>
  <circle cx="100" cy="120" r="20" fill="#5F5DE7" opacity="0.06"/>
  <rect x="85" y="115" width="30" height="30" rx="4" stroke="#5F5DE7" stroke-width="1" opacity="0.15"/>
  <path d="M160 120 Q200 100 240 120" stroke="#FF6A00" stroke-width="2" stroke-linecap="round" fill="none" opacity="0.4"/>
  <path d="M160 120 Q200 140 240 120" stroke="#5F5DE7" stroke-width="1.5" stroke-linecap="round" fill="none" opacity="0.25"/>
  <rect x="250" y="65" width="110" height="110" rx="14" fill="url(#t2g1)" stroke="#FF6A00" stroke-width="1.5" opacity="0.6"/>
  <circle cx="305" cy="110" r="25" fill="#5F5DE7" opacity="0.1"/>
  <circle cx="315" cy="100" r="8" fill="#FF6A00" opacity="0.2"/>
  <circle cx="290" cy="125" r="5" fill="#44C67F" opacity="0.2"/>
  <path d="M270 90 Q290 75 310 90" stroke="#018DFF" stroke-width="1" fill="none" opacity="0.25"/>
  <circle cx="370" cy="80" r="3" fill="#FF6A00" opacity="0.3"/>
  <circle cx="375" cy="100" r="2" fill="#5F5DE7" opacity="0.25"/>
  <path d="M100 280 Q200 250 300 280" stroke="#5F5DE7" stroke-width="1" stroke-linecap="round" fill="none" opacity="0.12"/>
  <circle cx="200" cy="200" r="10" fill="#5F5DE7" opacity="0.04"/>
</svg>
