<svg xmlns="http://www.w3.org/2000/svg" viewBox="0 0 400 350" fill="none">
  <defs>
    <linearGradient id="t3g1" x1="0" y1="0" x2="1" y2="1">
      <stop offset="0%" stop-color="#44C67F" stop-opacity="0.1"/>
      <stop offset="100%" stop-color="#018DFF" stop-opacity="0.08"/>
    </linearGradient>
  </defs>
  <rect x="50" y="50" width="120" height="90" rx="10" stroke="#44C67F" stroke-width="1.5" fill="none" opacity="0.35"/>
  <circle cx="90" cy="80" r="12" fill="#44C67F" opacity="0.08"/>
  <rect x="105" y="75" width="40" height="40" rx="5" stroke="#44C67F" stroke-width="1" opacity="0.12"/>
  <circle cx="210" cy="95" r="16" fill="#018DFF" opacity="0.06"/>
  <path d="M204 95 L216 95 M210 89 L210 101" stroke="#018DFF" stroke-width="1.5" stroke-linecap="round" opacity="0.3"/>
  <rect x="50" y="170" width="120" height="90" rx="10" stroke="#5F5DE7" stroke-width="1.5" fill="none" opacity="0.35"/>
  <circle cx="90" cy="215" r="10" fill="#5F5DE7" opacity="0.08"/>
  <path d="M70 220 Q90 200 110 220 Q130 240 150 220" stroke="#5F5DE7" stroke-width="0.8" fill="none" opacity="0.2"/>
  <path d="M200 95 Q240 135 200 215" stroke="#FF6A00" stroke-width="1.5" stroke-linecap="round" fill="none" opacity="0.3"/>
  <rect x="230" y="100" width="130" height="110" rx="14" fill="url(#t3g1)" stroke="#44C67F" stroke-width="1.5" opacity="0.5"/>
  <circle cx="295" cy="145" r="22" fill="#018DFF" opacity="0.08"/>
  <circle cx="305" cy="135" r="6" fill="#44C67F" opacity="0.25"/>
  <circle cx="280" cy="155" r="8" fill="#5F5DE7" opacity="0.18"/>
  <rect x="275" y="140" width="40" height="20" rx="5" stroke="#018DFF" stroke-width="0.8" opacity="0.15"/>
  <circle cx="370" cy="110" r="3" fill="#44C67F" opacity="0.3"/>
  <circle cx="375" cy="130" r="2" fill="#018DFF" opacity="0.25"/>
  <path d="M80 310 Q200 280 320 310" stroke="#44C67F" stroke-width="1" stroke-linecap="round" fill="none" opacity="0.12"/>
</svg>
